<svg style="position: absolute; width: 0; height: 0; overflow: hidden;" version="1.1" xmlns="http://www.w3.org/2000/svg" xmlns:xlink="http://www.w3.org/1999/xlink">
<defs>
<symbol id="icon-Vector247" viewBox="0 0 64 64">
<title>Vector247</title>
<path d="M63.833 32.013c0 17.597-14.275 31.872-31.872 31.872s-31.872-14.262-31.872-31.872c0-17.61 14.262-31.872 31.872-31.872s31.872 14.275 31.872 31.872zM22.753 32.975h-9.44l4.912-5.297c1.424-1.526 2.488-2.86 3.194-4.002 0.705-1.154 1.052-2.386 1.052-3.719 0-1.808-0.641-3.348-1.911-4.604-1.283-1.257-2.886-1.885-4.822-1.885s-3.591 0.68-4.951 2.026c-1.36 1.36-2.091 3.181-2.193 5.489h2.424c0.115-1.642 0.59-2.899 1.437-3.784 0.834-0.885 1.885-1.334 3.142-1.334s2.309 0.41 3.155 1.231c0.846 0.821 1.27 1.77 1.27 2.86s-0.295 2.065-0.872 2.924c-0.59 0.859-1.578 2.026-2.988 3.514l-8.337 9.004h14.942v-2.424h-0.013zM36.887 28.088h-2.539v-14.621h-0.731l-12.018 17.045h10.261v4.887h2.488v-4.887h2.539v-2.424zM26.28 28.088l5.579-7.901v7.901h-5.579zM43.646 20.893l-8.863 24.792h2.629l8.862-24.792h-2.629zM45.044 33.295v2.398h9.94l-9.645 18.507 2.078 1.116 11.453-22.022h-13.826z"></path>
</symbol>
<symbol id="icon-hanger" viewBox="0 0 125 64">
<title>hanger</title>
<path stroke-width="1.1704" stroke-miterlimit="10" stroke-linecap="butt" stroke-linejoin="miter" d="M124.816 55.386c-0.241-1.296-0.785-2.436-1.556-3.385-0.654-0.742-1.445-1.369-2.332-1.837-5.195-2.222-10.438-4.282-15.635-6.389l-12.407-5.056-12.032-4.682-14.982-6.086-1.779-0.702v-4.682c1.030-0.375 2.060-0.655 3.043-1.077 2.781-1.219 4.877-3.56 5.74-6.435 0.422-1.129 0.655-2.351 0.655-3.628 0-2.979-1.27-5.66-3.298-7.534-1.884-2.018-4.551-3.272-7.51-3.272-0.962 0-1.893 0.132-2.775 0.38-2.822 0.687-5.196 2.525-6.596 4.987-0.902 1.544-1.449 3.325-1.525 5.227-0.009 0.079-0.014 0.145-0.014 0.211 0 0.747 0.584 1.358 1.32 1.402 0.049 0.005 0.102 0.008 0.156 0.008 0.713 0 1.301-0.531 1.392-1.218 0.010-0.154 0.016-0.326 0.016-0.499s-0.005-0.345-0.016-0.515c0.386-4.022 3.766-7.162 7.88-7.162 1.075 0 2.101 0.215 3.035 0.603 2.949 1.086 5.051 3.921 5.051 7.247 0 0.030-0 0.059-0.001 0.088-0.034 3.333-2.117 6.175-5.049 7.327-0.828 0.279-1.746 0.492-2.691 0.619-1.53 0.243-1.81 0.57-1.81 2.022s0 4.12 0 6.133c-0.008 0.065-0.012 0.141-0.012 0.217 0 0.916 0.612 1.689 1.449 1.933l8.207 3.281 28.184 11.424 17.463 7.163 2.95 1.17c1.533 0.56 2.608 2.006 2.608 3.703 0 0.18-0.012 0.357-0.035 0.531-0.169 1.866-1.634 3.364-3.49 3.583l-1.611 0.002h-108.196c-0.176 0.021-0.381 0.033-0.588 0.033-1.11 0-2.14-0.345-2.988-0.934-0.909-0.783-1.492-1.955-1.492-3.263 0-1.88 1.204-3.479 2.884-4.066 2.512-0.992 4.993-1.835 7.474-2.725l24.72-8.849 13.39-4.682 4.682-1.592h0.468c0.631-0.167 1.089-0.733 1.089-1.406 0-0.802-0.65-1.451-1.451-1.451-0.263 0-0.509 0.070-0.722 0.192l-2.427 0.839-20.881 7.116-19.476 7.116-7.959 2.809c-2.787 1.133-4.716 3.82-4.716 6.958 0 0.254 0.013 0.504 0.037 0.751 0.446 3.223 3.040 5.753 6.287 6.099l1.81 0.003h107.962c0.17 0.013 0.368 0.020 0.568 0.020 1.892 0 3.635-0.642 5.022-1.719 0.948-0.808 1.69-1.866 2.119-3.073l0.437-1.034q-0.047-1.17-0.047-2.247z"></path>
</symbol>
<symbol id="icon-light" viewBox="0 0 144 64">
<title>light</title>
<path d="M144.24 22.865v-22.865h-144.24v22.865h47.012c1.166 4.153 3.196 7.739 5.895 10.706l-16.901 16.7 3.793 3.793 17.149-17.149c3.505 2.512 7.771 4.184 12.394 4.639l0.107 22.553h5.342v-22.544c5.139-0.494 9.751-2.426 13.518-5.384l15.971 16.069 3.793-3.793-16.027-16.027c2.209-2.661 3.93-5.817 4.973-9.267zM72.013 36.487c-8.887-0.012-16.463-5.615-19.399-13.48l38.791-0.143c-2.977 7.991-10.526 13.588-19.388 13.623z"></path>
</symbol>
<symbol id="icon-plug" viewBox="0 0 50 64">
<title>plug</title>
<path d="M22.177 63.249l-0.751-0.751c-0.381-0.634-0.614-1.395-0.632-2.208-0-3.603-0-7.2-0-10.797 0.001-0.017 0.001-0.036 0.001-0.056 0-0.645-0.43-1.191-1.019-1.365-2.875-1.274-5.248-3.203-7.013-5.607-2.101-2.665-3.746-5.729-4.801-9.056-0.808-2.502-1.367-5.187-1.626-7.96-0.011-0.821-0.011-1.493-0.011-2.126h-0.237c-1.107 0-2.174 0-3.281 0-1.668-0.192-2.951-1.596-2.951-3.3 0-0.346 0.053-0.679 0.151-0.993 0.388-1.425 1.692-2.472 3.241-2.472 0.068 0 0.135 0.002 0.201 0.006l7.502-0c0-0.198 0-0.316 0-0.435 0-1.225 0-2.49 0-3.716 0-2.886 0-5.771 0-8.657-0.005-0.068-0.007-0.147-0.007-0.227 0-1.028 0.427-1.957 1.113-2.618 0.57-0.555 1.349-0.897 2.207-0.897 0.491 0 0.956 0.112 1.371 0.312 1.197 0.478 2.040 1.645 2.040 3.010 0 0.051-0.001 0.101-0.003 0.151 0 2.997 0 6.002 0 9.006 0 1.344 0 2.688 0 3.953h13.954s0-0.237 0-0.395c0-2.095 0-4.19 0-6.364s0-4.506 0-6.72c0.122-1.533 1.293-2.759 2.79-2.963 0.123-0.011 0.246-0.017 0.371-0.017 0.773 0 1.496 0.211 2.116 0.579l0.771 0.78c0.311 0.597 0.511 1.299 0.553 2.042 0.001 3.215 0.001 6.417 0.001 9.619 0 1.146 0 2.293 0 3.479h2.728c2.056 0 3.953 0 6.127 0 1.566 0.076 2.824 1.293 2.964 2.834 0.041 0.205 0.064 0.427 0.064 0.655 0 1.834-1.487 3.321-3.321 3.321-0.092 0-0.182-0.004-0.272-0.011l-2.716 0.001c0 0.751 0 1.423 0 2.056-0.37 3.776-1.252 7.246-2.58 10.485-1.294 3.418-3.353 6.544-5.956 9.12-1.505 1.495-3.308 2.688-5.311 3.483l-2.281 0.591c0 0.474 0 0.988 0 1.463 0 3.36 0 6.72 0 10.080 0.001 0.030 0.002 0.065 0.002 0.101 0 1.834-1.487 3.321-3.321 3.321-0.224 0-0.443-0.022-0.655-0.065-0.57-0.184-1.080-0.412-1.559-0.689z"></path>
</symbol>
<symbol id="icon-wifi" viewBox="0 0 91 64">
<title>wifi</title>
<path d="M91.238 18.826c-3.004 2.937-6.031 5.875-9.035 8.901-0.823 0.801-1.558 1.691-2.448 2.648-8.809-8.577-20.856-13.867-34.139-13.867-13.193 0-25.167 5.218-33.97 13.704l-1.253-1.283-9.235-9.213c-0.345-0.304-0.722-0.597-1.118-0.865l-0.039-0.337c1.313-1.157 2.604-2.359 3.939-3.494 11.207-9.347 25.76-15.021 41.639-15.021 11.534 0 22.37 2.994 31.771 8.247 5.058 2.933 9.718 6.388 13.937 10.311z"></path>
<path d="M73.947 35.316l-11.416 11.638c-4.444-4.113-10.411-6.636-16.968-6.636s-12.524 2.523-16.985 6.651l-11.6-11.364c13.485-14.42 40.367-16.734 56.968-0.289z"></path>
<path d="M56.745 52.629l-11.127 11.371-11.305-11.127c5.118-5.697 16.245-6.253 22.431-0.245z"></path>
</symbol>
<symbol id="icon-VectorKitchen" viewBox="0 0 64 64">
<title>VectorKitchen</title>
<path fill="#000" style="fill: var(--color1, #000)" d="M64 32c0 17.673-14.327 32-32 32s-32-14.327-32-32c0-17.673 14.327-32 32-32s32 14.327 32 32z"></path>
<path fill="#fff" style="fill: var(--color2, #fff)" d="M26.531 26.879c0 0.272 0 0.489 0 0.718 0 2.175 0 4.349 0 6.524 0.004 0.057 0.006 0.123 0.006 0.19 0 0.581-0.164 1.124-0.448 1.585-0.336 0.514-0.854 0.902-1.464 1.070-0.072 0.011-0.134 0.015-0.197 0.015s-0.126-0.004-0.187-0.011q-6.984 0.001-13.976 0.001c-0.29-0.021-0.554-0.115-0.778-0.265-0.648-0.404-1.13-1.034-1.337-1.78-0.018-0.11-0.026-0.212-0.026-0.315s0.008-0.205 0.022-0.305q-0.001-3.566-0.001-7.132c0-0.087 0-0.174 0-0.25s0-0.141-0.326-0.141h-2.49c-0.37 0-0.402-0.217-0.402-0.587 0-0.196 0-0.391 0-0.587s0.065-0.217 0.217-0.217h23.823c0.359 0 0.359 0.239 0.359 0.598 0 0.185 0 0.381 0 0.565s-0.076 0.304-0.326 0.304h-2.468z"></path>
<path fill="#fff" style="fill: var(--color2, #fff)" d="M15.81 21.475c-0.044-0.078-0.091-0.146-0.143-0.209-0.197-0.155-0.323-0.395-0.323-0.666 0-0.321 0.178-0.6 0.44-0.744 0.079-0.043 0.168-0.067 0.263-0.067 0.001 0 0.002 0 0.003 0h2.435c0.395 0.055 0.696 0.391 0.696 0.797 0 0.104-0.020 0.204-0.056 0.296-0.107 0.179-0.237 0.353-0.379 0.549h0.185c1.5 0 3.001 0 4.502 0 0.015-0 0.033-0 0.051-0 1.205 0 2.241 0.726 2.693 1.765 0.087 0.165 0.157 0.334 0.209 0.511 0.011 0.078 0.015 0.146 0.015 0.215s-0.004 0.137-0.011 0.204l-0.195-0.008h-17.636c-0.024 0.003-0.051 0.004-0.079 0.004-0.126 0-0.244-0.030-0.35-0.082-0.169-0.118 0.005-0.27 0.005-0.4 0.285-0.835 0.875-1.503 1.634-1.883 0.385-0.196 0.818-0.306 1.277-0.306 0.055 0 0.109 0.002 0.163 0.005l4.614-0z"></path>
<path fill="#fff" style="fill: var(--color2, #fff)" d="M46.026 27.933s0 0 0 0.076c-0.009 0.202-0.069 0.388-0.166 0.549-0.078 0.137-0.188 0.254-0.319 0.34-0.175 0.119-0.386 0.189-0.614 0.189-0.081 0-0.159-0.009-0.235-0.025-0.251-0.043-0.472-0.172-0.633-0.356-0.138-0.157-0.232-0.354-0.261-0.572-0.005-0.056-0.007-0.115-0.007-0.174s0.002-0.118 0.007-0.176q-0.001-3.472-0.001-6.94v-0.12h-1.229s0 0 0-0.054q0-5.437 0-10.873c0-0.002 0-0.005 0-0.008 0-0.266 0.048-0.521 0.135-0.757 0.062-0.159 0.146-0.31 0.249-0.446 0.087-0.116 0.191-0.22 0.308-0.308 0.17-0.132 0.366-0.229 0.58-0.283 0.133-0.031 0.274-0.047 0.419-0.047s0.285 0.016 0.42 0.047c0.206 0.046 0.399 0.129 0.57 0.241 0.176 0.11 0.329 0.255 0.447 0.426 0.145 0.209 0.248 0.45 0.295 0.712 0.006 0.065 0.008 0.127 0.008 0.19s-0.002 0.126-0.007 0.188c0-0-0 0.009-0 0.019s0 0.019 0.001 0.028z"></path>
<path fill="#fff" style="fill: var(--color2, #fff)" d="M38.209 7.894h0.109c0.096 0.038 0.168 0.117 0.195 0.215 0.006 0.030 0.008 0.062 0.008 0.095s-0.003 0.065-0.008 0.096c0.001 0.421 0.001 0.845 0.001 1.269v3.479h0.674v-0.098q0-2.316 0-4.632c-0.004-0.026-0.007-0.056-0.007-0.087s0.002-0.061 0.007-0.090c0.049-0.153 0.193-0.265 0.363-0.265 0.041 0 0.081 0.006 0.118 0.019 0.146 0.031 0.259 0.152 0.28 0.302 0.003 0.025 0.004 0.051 0.004 0.078s-0.001 0.053-0.004 0.079q0 3.204 0 6.412c0 0.006 0 0.012 0 0.019 0 0.223-0.052 0.433-0.145 0.62-0.083 0.16-0.192 0.304-0.322 0.426-0.202 0.197-0.463 0.333-0.754 0.38l-0.225 0.001v0.109q0 5.73 0 11.471c0.001 0.020 0.002 0.044 0.002 0.068 0 0.158-0.024 0.31-0.070 0.453-0.042 0.126-0.105 0.245-0.184 0.351-0.055 0.071-0.12 0.135-0.191 0.191-0.125 0.095-0.271 0.163-0.43 0.196l-0.094 0.001h-0.283l-0.217-0.054c-0.183-0.060-0.337-0.166-0.456-0.303-0.103-0.123-0.181-0.269-0.227-0.428-0.012-0.069-0.017-0.139-0.017-0.209s0.006-0.141 0.016-0.209q-0.001-5.766-0.001-11.54v-0.109h-0.141c-0.183-0.012-0.353-0.055-0.51-0.123-0.111-0.052-0.214-0.117-0.308-0.194-0.3-0.242-0.502-0.599-0.541-1.003 0.001-0.017 0.001-0.031 0.001-0.044s-0.001-0.027-0.002-0.040l0-6.522v-0.076c0.033-0.134 0.137-0.238 0.269-0.271l0.068-0.001h0.141c0.078 0.017 0.144 0.055 0.196 0.109 0.054 0.059 0.093 0.133 0.108 0.215 0.002 0.029 0.003 0.059 0.003 0.090s-0.001 0.061-0.003 0.091q0 2.279 0 4.563v0.054h0.674v-0.098q0-2.305 0-4.61s0 0 0-0.076c-0.001-0.007-0.001-0.016-0.001-0.024 0-0.164 0.109-0.302 0.259-0.345 0.053-0.026 0.113-0.040 0.176-0.040s0.123 0.015 0.176 0.041c0.092 0.065 0.154 0.171 0.161 0.292s0 0.077 0 0.121q0 2.294 0 4.578s0 0 0 0.065v0h0.685v-0.859q0-1.935 0-3.871c-0.005-0.028-0.008-0.060-0.008-0.092s0.003-0.065 0.008-0.096c0.024-0.096 0.092-0.175 0.182-0.213l0.133-0.001z"></path>
<path fill="#fff" style="fill: var(--color2, #fff)" d="M53.453 37.654v11.602c-0.395 1.127-1.392 1.946-2.596 2.076l-0.775 0.925h-1.685l-0.555-0.924h-12.722l-0.576 0.924h-1.685l-0.761-0.935c-0.915-0.057-1.705-0.55-2.168-1.272-0.17-0.261-0.3-0.533-0.452-0.794v-11.602c0.49-0.991 1.357-1.733 2.408-2.048l19.132-0.007c0.89 0.236 1.622 0.795 2.079 1.54 0.122 0.205 0.237 0.369 0.363 0.523zM41.492 49.484h8.699c1.207 0 1.435-0.228 1.435-1.403q0-4.578 0-9.166c0-1.087-0.294-1.435-1.435-1.435h-17.397c-1.142 0-1.435 0.304-1.435 1.435q0 4.578 0 9.166c0 1.174 0.228 1.392 1.435 1.392z"></path>
<path fill="#fff" style="fill: var(--color2, #fff)" d="M40.057 39.361h5.513c1.087 0 1.413 0.272 1.424 1.348q0 2.805 0 5.611c0 1.011-0.294 1.294-1.283 1.305q-5.654 0-11.308 0c-0.979 0-1.207-0.25-1.207-1.25q0-2.892 0-5.795c0-0.946 0.283-1.207 1.25-1.218z"></path>
<path fill="#fff" style="fill: var(--color2, #fff)" d="M49.332 42.101c-0.016 0.001-0.035 0.001-0.054 0.001-0.754 0-1.366-0.611-1.366-1.366 0-0.735 0.581-1.335 1.309-1.364 0.019-0.001 0.038-0.001 0.057-0.001 0.754 0 1.366 0.611 1.366 1.366 0 0.735-0.581 1.335-1.309 1.364z"></path>
<path fill="#fff" style="fill: var(--color2, #fff)" d="M49.321 43.080c0.924 0 1.327 0.272 1.316 0.903s-0.457 0.924-1.348 0.913c-0.083 0.010-0.18 0.015-0.277 0.015s-0.194-0.006-0.289-0.017c-0.424-0.051-0.759-0.418-0.759-0.863 0-0.044 0.003-0.088 0.010-0.13 0.045-0.431 0.41-0.768 0.854-0.768 0.009 0 0.018 0 0.027 0 0.13-0.024 0.291-0.043 0.454-0.054z"></path>
<path fill="#fff" style="fill: var(--color2, #fff)" d="M49.441 47.625c-1.022 0-1.468-0.283-1.479-0.881s0.478-0.957 1.413-0.935c0.005-0 0.011-0 0.018-0 0.19 0 0.375 0.020 0.554 0.057 0.388 0.054 0.696 0.399 0.696 0.816 0 0.037-0.002 0.074-0.007 0.11-0.004 0.417-0.333 0.76-0.747 0.789-0.198 0.033-0.383 0.033-0.448 0.044z"></path>
</symbol>
<symbol id="icon-vectorBeer" viewBox="0 0 64 64">
<title>vectorBeer</title>
<path fill="#000" style="fill: var(--color1, #000)" d="M64 32c0 17.673-14.327 32-32 32s-32-14.327-32-32c0-17.673 14.327-32 32-32s32 14.327 32 32z"></path>
<path fill="#fff" style="fill: var(--color2, #fff)" d="M30.347 51.605c-0.157 0.004-0.342 0.006-0.527 0.006-2.825 0-5.529-0.517-8.023-1.461-0.548-0.266-1.154-0.659-1.69-1.13-0.434-0.34-0.715-0.875-0.715-1.476 0-0.334 0.087-0.647 0.239-0.919 0.285-0.601 0.455-1.317 0.455-2.073 0-0.059-0.001-0.118-0.003-0.177q0-10.071 0-20.151c0.001-0.022 0.002-0.048 0.002-0.074 0-0.36-0.151-0.685-0.393-0.915-0.788-0.902-1.268-2.090-1.268-3.389 0-1.146 0.373-2.206 1.005-3.062 0.614-0.704 1.479-1.199 2.458-1.342 0.237-0.049 0.419-0.171 0.542-0.337 0.925-1.622 2.641-2.697 4.608-2.697 1.546 0 2.937 0.664 3.904 1.723 0.172 0.221 0.433 0.359 0.726 0.359 0.107 0 0.21-0.018 0.306-0.052 0.372-0.117 0.807-0.186 1.259-0.186 1.581 0 2.964 0.843 3.726 2.104 0.148 0.223 0.358 0.369 0.603 0.421 1.578 0.064 2.827 1.354 2.827 2.935 0 0.34-0.058 0.666-0.164 0.969-0.262 0.66-0.565 1.244-0.92 1.791-0.089 0.113-0.182 0.29-0.244 0.48-0.102 0.731-0.004 0.807 0.703 0.807 1.011 0 2.012 0 3.023 0 0.024-0.001 0.052-0.001 0.080-0.001 1.201 0 2.175 0.974 2.175 2.175 0 0.089-0.005 0.176-0.016 0.262 0.001 1.436 0.284 2.871 0.392 4.339 0.104 0.811 0.163 1.75 0.163 2.702 0 2.134-0.298 4.199-0.854 6.155-0.643 2.393-2.509 4.399-4.919 5.261-0.773 0.267-0.925 0.583-0.685 1.322 0.076 0.239 0.207 0.457 0.294 0.696 0.156 0.287 0.248 0.63 0.248 0.993 0 0.745-0.386 1.399-0.969 1.775-1.052 0.797-2.314 1.358-3.689 1.586-1.8 0.235-3.605 0.431-4.659 0.583zM23.443 16.93c-0.198-0.013-0.43-0.020-0.663-0.020s-0.465 0.007-0.695 0.022c-0.756 0.075-1.42 0.543-1.768 1.204-0.245 0.497-0.385 1.068-0.385 1.671 0 1.308 0.658 2.462 1.66 3.149 0.459 0.28 0.926 0.509 1.394 0.748 0.951 0.465 1.645 1.33 1.866 2.37 0.173 0.857 0.27 1.815 0.27 2.797 0 0.875-0.077 1.733-0.225 2.565-0.132 0.786-0.241 1.839-0.289 2.907-0.002 0.067-0.002 0.075-0.002 0.083 0 0.907 0.735 1.642 1.642 1.642 0.019 0 0.038-0 0.057-0.001 1.487 0.065 2.291-0.978 2.031-2.599-0.31-1.376-0.487-2.956-0.487-4.577 0-0.325 0.007-0.649 0.021-0.97 0.015-1.627 1.069-3.050 2.548-3.61 0.571-0.216 1.114-0.422 1.691-0.574 1.533-0.424 3.088-0.772 4.589-1.283 0.677-0.274 1.249-0.685 1.703-1.202 0.325-0.329 0.523-0.775 0.523-1.266 0-0.991-0.803-1.794-1.794-1.794-0.099 0-0.195 0.008-0.289 0.023-0.030 0.006-0.077 0.010-0.124 0.010-0.353 0-0.652-0.231-0.755-0.55-0.459-1.16-1.566-1.961-2.86-1.961-0.637 0-1.229 0.194-1.72 0.527l-0.511 0.298c-1.218-2.175-2.468-2.903-4.436-2.62-1.602 0.133-2.868 1.407-2.989 3.001zM39.078 40.851c0.929-0.021 1.743-0.495 2.234-1.208 0.697-1.078 1.167-2.352 1.318-3.722 0.133-1.184 0.208-2.511 0.208-3.856 0-1.722-0.122-3.415-0.357-5.072 0.022 0.186 0.022 0.181 0.022 0.176 0-0.372-0.302-0.674-0.674-0.674-0.023 0-0.046 0.001-0.068 0.003-0.65-0-1.302-0-1.954-0s-0.739 0.196-0.739 0.761c0 3.523 0 7.057 0 10.58 0.022 1.011 0.022 2.012 0.022 3.055zM37.621 23.715c-0.685 0.196-1.261 0.381-1.838 0.533-1.435 0.381-2.881 0.707-4.349 1.142-1.282 0.356-2.207 1.513-2.207 2.886 0 0.156 0.012 0.309 0.035 0.458 1.343-0.072 2.599-0.193 3.835-0.378 1.508-0.332 2.901-0.708 4.264-1.149-0.084-0.004 0.082-0.191 0.14-0.421 0.142-1.027 0.121-2.006 0.121-3.071zM21.464 24.639c0 0.729 0 1.392 0 2.066 0.011 0.202 0.12 0.377 0.28 0.477 0.633 0.295 1.286 0.545 1.971 0.828 0.023-0.14 0.036-0.3 0.036-0.464 0-1.408-0.969-2.589-2.277-2.913z"></path>
</symbol>
<symbol id="icon-vectorComputer" viewBox="0 0 64 64">
<title>vectorComputer</title>
<path fill="#000" style="fill: var(--color1, #000)" d="M64 32c0 17.673-14.327 32-32 32s-32-14.327-32-32c0-17.673 14.327-32 32-32s32 14.327 32 32z"></path>
<path fill="#fff" style="fill: var(--color2, #fff)" d="M21.605 49.593c-0.035-0.17-0.055-0.366-0.055-0.567 0-1.509 1.126-2.755 2.584-2.944 0.122-0.009 0.247-0.013 0.374-0.013s0.252 0.004 0.376 0.013l4.811-0.001v-2.805h-0.609c-4.512 0-9.036 0-13.548 0-0.058 0.006-0.126 0.010-0.194 0.010-1.099 0-1.99-0.891-1.99-1.99 0-0.068 0.003-0.136 0.010-0.203-0.001-7.364-0.001-14.747-0.001-22.119-0.004-0.049-0.006-0.105-0.006-0.163 0-0.38 0.090-0.74 0.251-1.058 0.257-0.467 0.747-0.794 1.316-0.824 0.145-0 0.297-0 0.439-0h33.185c0.093-0.008 0.201-0.012 0.31-0.012s0.217 0.004 0.324 0.013c0.757 0.124 1.352 0.742 1.442 1.513 0.007 0.102 0.011 0.212 0.011 0.323s-0.004 0.221-0.011 0.33q0.001 10.956 0.001 21.917c0.005 0.086 0.008 0.187 0.008 0.288s-0.003 0.202-0.008 0.302c-0.086 0.875-0.801 1.571-1.69 1.628-0.201 0-0.386 0-0.582 0h-14.799v2.762h4.915c0.046-0.002 0.101-0.004 0.156-0.004 1.029 0 1.941 0.504 2.502 1.278 0.353 0.519 0.56 1.149 0.56 1.827 0 0.16-0.012 0.318-0.034 0.472zM31.902 39.633h12.776c0.623-0.038 1.169-0.333 1.541-0.779 0.406-0.476 0.652-1.095 0.652-1.77 0-0.071-0.003-0.141-0.008-0.211q0.001-5.003 0.001-10.016c0-1.153 0-2.316 0-3.469 0.007-0.071 0.011-0.153 0.011-0.236 0-1.381-1.12-2.501-2.501-2.501-0.069 0-0.137 0.003-0.205 0.008l-25-0.001c-0.673 0.048-1.265 0.357-1.683 0.824-0.393 0.462-0.63 1.061-0.63 1.717 0 0.074 0.003 0.147 0.009 0.22q-0.001 6.449-0.001 12.908c0 0.272 0 0.544 0 0.816 0 0.001 0 0.003 0 0.004 0 0.846 0.428 1.593 1.079 2.035 0.405 0.257 0.888 0.405 1.406 0.405 0.075 0 0.148-0.003 0.221-0.009z"></path>
</symbol>
<symbol id="icon-vectorElevator" viewBox="0 0 64 64">
<title>vectorElevator</title>
<path fill="#000" style="fill: var(--color1, #000)" d="M64 32c0 17.673-14.327 32-32 32s-32-14.327-32-32c0-17.673 14.327-32 32-32s32 14.327 32 32z"></path>
<path fill="#fff" style="fill: var(--color2, #fff)" d="M46.951 21.877c-0.446-0.45-1.063-0.729-1.746-0.729-0.002 0-0.003 0-0.005 0h-26.302c-1.369 0-2.479 1.11-2.479 2.479v26.215c0 1.369 1.11 2.479 2.479 2.479h26.302c1.369 0 2.479-1.11 2.479-2.479v-26.215c-0-0.684-0.279-1.303-0.728-1.75zM45.146 23.682v26.096h-26.194v-26.096z"></path>
<path fill="#fff" style="fill: var(--color2, #fff)" d="M26.313 29.401c0 0.763-0.618 1.381-1.381 1.381s-1.381-0.618-1.381-1.381c0-0.763 0.618-1.381 1.381-1.381s1.381 0.618 1.381 1.381z"></path>
<path fill="#fff" style="fill: var(--color2, #fff)" d="M27.401 31.598h-5.274c-0.3 0-0.544 0.243-0.544 0.544v6.219c0 0.3 0.243 0.544 0.544 0.544h0.892v7.372c-0.003 0.027-0.005 0.057-0.005 0.089 0 0.402 0.326 0.728 0.729 0.728s0.729-0.326 0.729-0.728c0-0.031-0.002-0.062-0.006-0.092l0-7.358h1.087v7.372c-0.003 0.027-0.005 0.057-0.005 0.089 0 0.402 0.326 0.728 0.729 0.728s0.729-0.326 0.729-0.728c0-0.031-0.002-0.062-0.006-0.092l0-7.368h0.435c0.3 0 0.544-0.243 0.544-0.544v-6.219c0-0.004 0-0.008 0-0.012 0-0.3-0.243-0.544-0.544-0.544-0.012 0-0.023 0-0.034 0.001z"></path>
<path fill="#fff" style="fill: var(--color2, #fff)" d="M33.577 29.401c0 0.763-0.618 1.381-1.381 1.381s-1.381-0.618-1.381-1.381c0-0.763 0.618-1.381 1.381-1.381s1.381 0.618 1.381 1.381z"></path>
<path fill="#fff" style="fill: var(--color2, #fff)" d="M34.729 31.598h-5.263c-0.3 0-0.544 0.243-0.544 0.544v6.219c0 0.3 0.243 0.544 0.544 0.544h0.892v7.372c-0.003 0.027-0.005 0.057-0.005 0.089 0 0.402 0.326 0.728 0.729 0.728s0.729-0.326 0.729-0.728c0-0.031-0.002-0.062-0.006-0.092l0-7.358h1.087v7.372c-0.003 0.027-0.005 0.057-0.005 0.089 0 0.402 0.326 0.728 0.728 0.728s0.728-0.326 0.728-0.728c0-0.031-0.002-0.062-0.006-0.092l0-7.368h0.435c0.3 0 0.544-0.243 0.544-0.544v-6.219c0-0.004 0-0.008 0-0.013 0-0.3-0.243-0.544-0.544-0.544-0.015 0-0.031 0.001-0.046 0.002z"></path>
<path fill="#fff" style="fill: var(--color2, #fff)" d="M40.883 29.401c0 0.763-0.618 1.381-1.381 1.381s-1.381-0.618-1.381-1.381c0-0.763 0.618-1.381 1.381-1.381s1.381 0.618 1.381 1.381z"></path>
<path fill="#fff" style="fill: var(--color2, #fff)" d="M42.145 31.598h-5.273c-0.3 0-0.544 0.243-0.544 0.544v6.219c0 0.3 0.243 0.544 0.544 0.544h0.892v7.372c-0.003 0.027-0.005 0.057-0.005 0.089 0 0.402 0.326 0.728 0.728 0.728s0.728-0.326 0.728-0.728c0-0.031-0.002-0.062-0.006-0.092l0-7.358h1.087v7.372c-0.003 0.027-0.005 0.057-0.005 0.089 0 0.402 0.326 0.728 0.728 0.728s0.728-0.326 0.728-0.728c0-0.031-0.002-0.062-0.006-0.092l0-7.368h0.435c0.3 0 0.544-0.243 0.544-0.544v-6.219c0-0.004 0-0.008 0-0.012 0-0.3-0.243-0.544-0.544-0.544-0.011 0-0.023 0-0.034 0.001z"></path>
<path fill="#fff" style="fill: var(--color2, #fff)" d="M19.637 16.049l4.436-6.241 4.425 6.241h-8.862z"></path>
<path fill="#fff" style="fill: var(--color2, #fff)" d="M42.786 9.808l-4.425 6.241-4.425-6.241h8.851z"></path>
</symbol>
<symbol id="icon-vectorHammock" viewBox="0 0 64 64">
<title>vectorHammock</title>
<path fill="#000" style="fill: var(--color1, #000)" d="M64 32c0 17.673-14.327 32-32 32s-32-14.327-32-32c0-17.673 14.327-32 32-32s32 14.327 32 32z"></path>
<path fill="#fff" style="fill: var(--color2, #fff)" d="M13.461 18.365c0 1.609-0.109 3.262-0.087 4.828 0.050 0.431 0.248 0.809 0.543 1.087 4.35 4.035 9.33 6.971 15.289 7.797 0.95 0.139 2.047 0.219 3.162 0.219 4.505 0 8.706-1.296 12.253-3.536 2.014-1.235 3.843-2.638 5.511-4.211 0.425-0.354 0.704-0.906 0.704-1.522 0-0.040-0.001-0.081-0.004-0.12 0-1.506 0-3.028 0-4.54h1.468v28.629l-1.424 0.076v-17.473c-0.137 0.142-0.266 0.294-0.383 0.456-2.513 4.814-7.105 8.232-12.547 9.079-1.709 0.347-3.563 0.539-5.461 0.539-2.697 0-5.305-0.387-7.769-1.108-4.297-1.194-7.991-4.021-10.33-7.78l-0.936-1.424c-0.076 0.969-0.119 2.099-0.119 3.239 0 0.482 0.008 0.963 0.023 1.441-0.002 1.355-0.002 2.768-0.002 4.193v8.775l-1.305 0.098c-0.088-0.144-0.158-0.311-0.204-0.487-0.003-1.187-0.003-2.361-0.003-3.536q0-8.014 0-16.027c0-2.392 0-4.795 0-7.187 0-0.489-0.076-0.968-0.109-1.457zM33.25 35.251c0.034 0 0.075 0 0.115 0 5.476 0 10.394-2.393 13.764-6.19-0.267 0.030-0.52 0.133-0.741 0.279-1.232 0.691-2.428 1.463-3.7 2.072-3.022 1.497-6.58 2.373-10.343 2.373-1.502 0-2.971-0.14-4.396-0.406-4.622-0.882-8.824-2.856-12.352-5.644l-1.593-1.194c0.068 0.316 0.139 0.575 0.223 0.828 1.787 4.554 5.505 8.073 10.134 9.567 2.497 0.818 5.239 1.272 8.087 1.272 1.745 0 3.451-0.17 5.101-0.495 2.941-0.458 5.686-1.746 7.928-3.615 1.362-1.056 2.468-2.43 3.207-4.011-4.256 4.119-9.16 6.794-15.39 6.631z"></path>
</symbol>
<symbol id="icon-vectorInformation" viewBox="0 0 64 64">
<title>vectorInformation</title>
<path fill="#000" style="fill: var(--color1, #000)" d="M64 32c0 17.673-14.327 32-32 32s-32-14.327-32-32c0-17.673 14.327-32 32-32s32 14.327 32 32z"></path>
<path fill="#fff" style="fill: var(--color2, #fff)" d="M35.545 45.287q-0.087 2.175 3.86 2.175v2.794h-13.766v-2.762q3.817 0 3.817-2.175v-14.875q0-2.251-3.817-2.251v-2.827h9.906zM36.078 17.147c0 0.024 0.001 0.052 0.001 0.080 0 1.106-0.413 2.115-1.092 2.882-0.629 0.762-1.579 1.246-2.642 1.246-0.014 0-0.028-0-0.041-0-0.005 0-0.013 0-0.021 0-0.535 0-1.039-0.129-1.485-0.357-0.448-0.224-0.845-0.527-1.175-0.891-0.343-0.376-0.621-0.812-0.819-1.29-0.21-0.507-0.326-1.061-0.326-1.643 0-0.010 0-0.020 0-0.030-0.002-0.044-0.003-0.097-0.003-0.151 0-1.083 0.414-2.069 1.093-2.808 0.655-0.732 1.607-1.193 2.667-1.193 0.006 0 0.011 0 0.017 0 0.002 0 0.006 0 0.010 0 1.061 0 2.011 0.475 2.649 1.224 0.724 0.762 1.167 1.788 1.167 2.918 0 0.004 0 0.008 0 0.012z"></path>
</symbol>
<symbol id="icon-vectorKitchen" viewBox="0 0 64 64">
<title>vectorKitchen</title>
<path fill="#000" style="fill: var(--color1, #000)" d="M64 32c0 17.673-14.327 32-32 32s-32-14.327-32-32c0-17.673 14.327-32 32-32s32 14.327 32 32z"></path>
<path fill="#fff" style="fill: var(--color2, #fff)" d="M26.531 26.879c0 0.272 0 0.489 0 0.718 0 2.175 0 4.349 0 6.524 0.004 0.057 0.006 0.123 0.006 0.19 0 0.581-0.164 1.124-0.448 1.585-0.336 0.514-0.854 0.902-1.464 1.070-0.072 0.011-0.134 0.015-0.197 0.015s-0.126-0.004-0.187-0.011q-6.984 0.001-13.976 0.001c-0.29-0.021-0.554-0.115-0.778-0.265-0.648-0.404-1.13-1.034-1.337-1.78-0.018-0.11-0.026-0.212-0.026-0.315s0.008-0.205 0.022-0.305q-0.001-3.566-0.001-7.132c0-0.087 0-0.174 0-0.25s0-0.141-0.326-0.141h-2.49c-0.37 0-0.402-0.217-0.402-0.587 0-0.196 0-0.391 0-0.587s0.065-0.217 0.217-0.217h23.823c0.359 0 0.359 0.239 0.359 0.598 0 0.185 0 0.381 0 0.565s-0.076 0.304-0.326 0.304h-2.468z"></path>
<path fill="#fff" style="fill: var(--color2, #fff)" d="M15.81 21.475c-0.044-0.078-0.091-0.146-0.143-0.209-0.197-0.155-0.323-0.395-0.323-0.666 0-0.321 0.178-0.6 0.44-0.744 0.079-0.043 0.168-0.067 0.263-0.067 0.001 0 0.002 0 0.003 0h2.435c0.395 0.055 0.696 0.391 0.696 0.797 0 0.104-0.020 0.204-0.056 0.296-0.107 0.179-0.237 0.353-0.379 0.549h0.185c1.5 0 3.001 0 4.502 0 0.015-0 0.033-0 0.051-0 1.205 0 2.241 0.726 2.693 1.765 0.087 0.165 0.157 0.334 0.209 0.511 0.011 0.078 0.015 0.146 0.015 0.215s-0.004 0.137-0.011 0.204l-0.195-0.008h-17.636c-0.024 0.003-0.051 0.004-0.079 0.004-0.126 0-0.244-0.030-0.35-0.082-0.169-0.118 0.005-0.27 0.005-0.4 0.285-0.835 0.875-1.503 1.634-1.883 0.385-0.196 0.818-0.306 1.277-0.306 0.055 0 0.109 0.002 0.163 0.005l4.614-0z"></path>
<path fill="#fff" style="fill: var(--color2, #fff)" d="M46.026 27.933s0 0 0 0.076c-0.009 0.202-0.069 0.388-0.166 0.549-0.078 0.137-0.188 0.254-0.319 0.34-0.175 0.119-0.386 0.189-0.614 0.189-0.081 0-0.159-0.009-0.235-0.025-0.251-0.043-0.472-0.172-0.633-0.356-0.138-0.157-0.232-0.354-0.261-0.572-0.005-0.056-0.007-0.115-0.007-0.174s0.002-0.118 0.007-0.176q-0.001-3.472-0.001-6.94v-0.12h-1.229s0 0 0-0.054q0-5.437 0-10.873c0-0.002 0-0.005 0-0.008 0-0.266 0.048-0.521 0.135-0.757 0.062-0.159 0.146-0.31 0.249-0.446 0.087-0.116 0.191-0.22 0.308-0.308 0.17-0.132 0.366-0.229 0.58-0.283 0.133-0.031 0.274-0.047 0.419-0.047s0.285 0.016 0.42 0.047c0.206 0.046 0.399 0.129 0.57 0.241 0.176 0.11 0.329 0.255 0.447 0.426 0.145 0.209 0.248 0.45 0.295 0.712 0.006 0.065 0.008 0.127 0.008 0.19s-0.002 0.126-0.007 0.188c0-0-0 0.009-0 0.019s0 0.019 0.001 0.028z"></path>
<path fill="#fff" style="fill: var(--color2, #fff)" d="M38.209 7.894h0.109c0.096 0.038 0.168 0.117 0.195 0.215 0.006 0.030 0.008 0.062 0.008 0.095s-0.003 0.065-0.008 0.096c0.001 0.421 0.001 0.845 0.001 1.269v3.479h0.674v-0.098q0-2.316 0-4.632c-0.004-0.026-0.007-0.056-0.007-0.087s0.002-0.061 0.007-0.090c0.049-0.153 0.193-0.265 0.363-0.265 0.041 0 0.081 0.006 0.118 0.019 0.146 0.031 0.259 0.152 0.28 0.302 0.003 0.025 0.004 0.051 0.004 0.078s-0.001 0.053-0.004 0.079q0 3.204 0 6.412c0 0.006 0 0.012 0 0.019 0 0.223-0.052 0.433-0.145 0.62-0.083 0.16-0.192 0.304-0.322 0.426-0.202 0.197-0.463 0.333-0.754 0.38l-0.225 0.001v0.109q0 5.73 0 11.471c0.001 0.020 0.002 0.044 0.002 0.068 0 0.158-0.024 0.31-0.070 0.453-0.042 0.126-0.105 0.245-0.184 0.351-0.055 0.071-0.12 0.135-0.191 0.191-0.125 0.095-0.271 0.163-0.43 0.196l-0.094 0.001h-0.283l-0.217-0.054c-0.183-0.060-0.337-0.166-0.456-0.303-0.103-0.123-0.181-0.269-0.227-0.428-0.012-0.069-0.017-0.139-0.017-0.209s0.006-0.141 0.016-0.209q-0.001-5.766-0.001-11.54v-0.109h-0.141c-0.183-0.012-0.353-0.055-0.51-0.123-0.111-0.052-0.214-0.117-0.308-0.194-0.3-0.242-0.502-0.599-0.541-1.003 0.001-0.017 0.001-0.031 0.001-0.044s-0.001-0.027-0.002-0.040l0-6.522v-0.076c0.033-0.134 0.137-0.238 0.269-0.271l0.068-0.001h0.141c0.078 0.017 0.144 0.055 0.196 0.109 0.054 0.059 0.093 0.133 0.108 0.215 0.002 0.029 0.003 0.059 0.003 0.090s-0.001 0.061-0.003 0.091q0 2.279 0 4.563v0.054h0.674v-0.098q0-2.305 0-4.61s0 0 0-0.076c-0.001-0.007-0.001-0.016-0.001-0.024 0-0.164 0.109-0.302 0.259-0.345 0.053-0.026 0.113-0.040 0.176-0.040s0.123 0.015 0.176 0.041c0.092 0.065 0.154 0.171 0.161 0.292s0 0.077 0 0.121q0 2.294 0 4.578s0 0 0 0.065v0h0.685v-0.859q0-1.935 0-3.871c-0.005-0.028-0.008-0.060-0.008-0.092s0.003-0.065 0.008-0.096c0.024-0.096 0.092-0.175 0.182-0.213l0.133-0.001z"></path>
<path fill="#fff" style="fill: var(--color2, #fff)" d="M53.453 37.654v11.602c-0.395 1.127-1.392 1.946-2.596 2.076l-0.775 0.925h-1.685l-0.555-0.924h-12.722l-0.576 0.924h-1.685l-0.761-0.935c-0.915-0.057-1.705-0.55-2.168-1.272-0.17-0.261-0.3-0.533-0.452-0.794v-11.602c0.49-0.991 1.357-1.733 2.408-2.048l19.132-0.007c0.89 0.236 1.622 0.795 2.079 1.54 0.122 0.205 0.237 0.369 0.363 0.523zM41.492 49.484h8.699c1.207 0 1.435-0.228 1.435-1.403q0-4.578 0-9.166c0-1.087-0.294-1.435-1.435-1.435h-17.397c-1.142 0-1.435 0.304-1.435 1.435q0 4.578 0 9.166c0 1.174 0.228 1.392 1.435 1.392z"></path>
<path fill="#fff" style="fill: var(--color2, #fff)" d="M40.057 39.361h5.513c1.087 0 1.413 0.272 1.424 1.348q0 2.805 0 5.611c0 1.011-0.294 1.294-1.283 1.305q-5.654 0-11.308 0c-0.979 0-1.207-0.25-1.207-1.25q0-2.892 0-5.795c0-0.946 0.283-1.207 1.25-1.218z"></path>
<path fill="#fff" style="fill: var(--color2, #fff)" d="M49.332 42.101c-0.016 0.001-0.035 0.001-0.054 0.001-0.754 0-1.366-0.611-1.366-1.366 0-0.735 0.581-1.335 1.309-1.364 0.019-0.001 0.038-0.001 0.057-0.001 0.754 0 1.366 0.611 1.366 1.366 0 0.735-0.581 1.335-1.309 1.364z"></path>
<path fill="#fff" style="fill: var(--color2, #fff)" d="M49.321 43.080c0.924 0 1.327 0.272 1.316 0.903s-0.457 0.924-1.348 0.913c-0.083 0.010-0.18 0.015-0.277 0.015s-0.194-0.006-0.289-0.017c-0.424-0.051-0.759-0.418-0.759-0.863 0-0.044 0.003-0.088 0.010-0.13 0.045-0.431 0.41-0.768 0.854-0.768 0.009 0 0.018 0 0.027 0 0.13-0.024 0.291-0.043 0.454-0.054z"></path>
<path fill="#fff" style="fill: var(--color2, #fff)" d="M49.441 47.625c-1.022 0-1.468-0.283-1.479-0.881s0.478-0.957 1.413-0.935c0.005-0 0.011-0 0.018-0 0.19 0 0.375 0.020 0.554 0.057 0.388 0.054 0.696 0.399 0.696 0.816 0 0.037-0.002 0.074-0.007 0.11-0.004 0.417-0.333 0.76-0.747 0.789-0.198 0.033-0.383 0.033-0.448 0.044z"></path>
</symbol>
<symbol id="icon-vectorLaundry" viewBox="0 0 64 64">
<title>vectorLaundry</title>
<path fill="#000" style="fill: var(--color1, #000)" d="M64 32c0 17.673-14.327 32-32 32s-32-14.327-32-32c0-17.673 14.327-32 32-32s32 14.327 32 32z"></path>
<path fill="#fff" style="fill: var(--color2, #fff)" d="M46.494 13.853c0.005-0.043 0.008-0.093 0.008-0.143 0-0.715-0.579-1.294-1.294-1.294-0.064 0-0.127 0.005-0.189 0.014l-25.991-0.001c-0.052-0.007-0.111-0.011-0.172-0.011-0.715 0-1.294 0.579-1.294 1.294 0 0.054 0.003 0.107 0.010 0.159-0.001 1.309-0.001 2.636-0.001 3.952 0 0.109 0 0.217 0 0.337h28.923c0-1.468 0.011-2.936 0-4.306zM21.823 16.777c-0.804-0.024-1.446-0.682-1.446-1.489 0-0 0-0 0-0.001 0.024-0.78 0.662-1.403 1.445-1.403 0.012 0 0.023 0 0.035 0-0.001-0-0.001-0-0.001-0 0.775 0 1.403 0.628 1.403 1.403 0 0.019-0 0.038-0.001 0.057-0.006 0.787-0.645 1.426-1.435 1.433zM26.063 16.777c-0.787-0.024-1.418-0.658-1.435-1.444 0-0.002 0-0.002 0-0.002 0-0.799 0.647-1.446 1.446-1.446 0.008 0 0.015 0 0.023 0s0.020-0 0.032-0c0.783 0 1.418 0.632 1.424 1.413 0 0.007 0 0.015 0 0.022 0 0.805-0.652 1.457-1.457 1.457-0 0-0 0-0 0z"></path>
<path fill="#fff" style="fill: var(--color2, #fff)" d="M46.44 21.964c0-0.131 0-0.261 0-0.391 0-0.008 0-0.018 0-0.028 0-0.715-0.579-1.294-1.294-1.294-0.046 0-0.092 0.002-0.136 0.007l-26.090-0c-0.009-0-0.020-0-0.031-0-0.171 0-0.336 0.024-0.493 0.069-0.528 0.156-0.915 0.648-0.915 1.23 0 0.068 0.005 0.134 0.015 0.199q-0.001 14.237-0.001 28.481v0.381h28.945v-0.598q0-14.005 0-28.053zM31.75 44.015c-5.124-0.037-9.264-4.2-9.264-9.329 0-5.152 4.177-9.329 9.329-9.329s9.329 4.177 9.329 9.329c0 0.011 0 0.023-0 0.034 0-0.002 0-0.001 0-0.001 0 5.134-4.162 9.297-9.297 9.297-0.034 0-0.069-0-0.103-0.001z"></path>
<path fill="#fff" style="fill: var(--color2, #fff)" d="M24.323 32.207c0.513 0.518 1.223 0.838 2.009 0.838 0.689 0 1.321-0.247 1.812-0.657 0.482 0.426 1.122 0.683 1.822 0.683s1.34-0.257 1.83-0.683c1.617 0.938 2.497 0.938 3.78-0.051 0.494 0.45 1.147 0.731 1.866 0.75 0.718-0.003 1.372-0.261 1.878-0.688 0.194 0.654 0.309 1.401 0.309 2.175 0 2.375-1.077 4.498-2.769 5.908-1.361 1.143-3.116 1.831-5.032 1.831-4.324 0-7.829-3.505-7.829-7.829 0-0.793 0.118-1.558 0.337-2.279z"></path>
</symbol>
<symbol id="icon-vectorLocker" viewBox="0 0 64 64">
<title>vectorLocker</title>
<path d="M43.939 45.233v-10.569c0-1.483-1.202-2.686-2.686-2.686h-1.229v15.94h1.218c0.003 0 0.007 0 0.011 0 1.483 0 2.686-1.202 2.686-2.686 0 0 0 0 0 0z"></path>
<path d="M27.194 15.32c0 2-1.621 3.621-3.621 3.621s-3.621-1.621-3.621-3.621c0-2 1.621-3.621 3.621-3.621s3.621 1.621 3.621 3.621z"></path>
<path d="M22.747 47.918h1.087v-15.94h-1.087c-1.483 0-2.686 1.202-2.686 2.686v10.569c0 1.483 1.202 2.686 2.686 2.686z"></path>
<path d="M38.611 31.978h-3.327v-2.697c0-0.408-0.331-0.739-0.739-0.739h-5.273c-0.408 0-0.739 0.331-0.739 0.739v2.697h-3.262v15.94h13.341zM34.349 31.978h-4.871v-2.49h4.86z"></path>
<path d="M32 0c-17.673 0-32 14.327-32 32s14.327 32 32 32c17.673 0 32-14.327 32-32s-14.327-32-32-32zM23.573 9.405c2.895 0.023 5.292 2.121 5.779 4.879l5.757 0.036v-4.349h2.175v4.349h2.175v-2.773h2.175v2.773h2.24v2.175h-14.516c-0.566 2.724-2.946 4.741-5.797 4.741-3.267 0-5.915-2.648-5.915-5.915s2.648-5.915 5.915-5.915c0.001 0 0.001 0 0.002 0zM51.691 51.637h-39.394v-26.824h39.394z"></path>
</symbol>
<symbol id="icon-vectorShower" viewBox="0 0 64 64">
<title>vectorShower</title>
<path fill="#000" style="fill: var(--color1, #000)" d="M64 32c0 17.673-14.327 32-32 32s-32-14.327-32-32c0-17.673 14.327-32 32-32s32 14.327 32 32z"></path>
<path fill="#fff" style="fill: var(--color2, #fff)" d="M28.542 16.854l1.609-1.446s6.339-0.881 12.374 5.143c2.886 3.125 4.696 7.282 4.816 11.86l0.001 2.753h-2.979v-1.925s-1.283-8.231-7.796-11.721l-1.848 1.685s-4.338-2.729-6.176-6.35z"></path>
<path fill="#fff" style="fill: var(--color2, #fff)" d="M44.363 36.208h2.892v12.417h-2.892v-12.417z"></path>
<path fill="#fff" style="fill: var(--color2, #fff)" d="M27.508 18.607c0.001 0.3-0.242 0.544-0.542 0.545s-0.544-0.242-0.545-0.542c-0.001-0.3 0.242-0.544 0.542-0.545s0.544 0.242 0.545 0.542z"></path>
<path fill="#fff" style="fill: var(--color2, #fff)" d="M25.509 19.55c0 0.3-0.243 0.544-0.544 0.544s-0.544-0.243-0.544-0.544c0-0.3 0.243-0.544 0.544-0.544s0.544 0.243 0.544 0.544z"></path>
<path fill="#fff" style="fill: var(--color2, #fff)" d="M23.424 20.478c0 0.3-0.243 0.544-0.543 0.544s-0.544-0.243-0.544-0.543c-0-0.3 0.243-0.544 0.543-0.544s0.544 0.243 0.544 0.543z"></path>
<path fill="#fff" style="fill: var(--color2, #fff)" d="M21.464 21.388c0 0.3-0.243 0.544-0.544 0.544s-0.544-0.243-0.544-0.544c0-0.3 0.243-0.544 0.544-0.544s0.544 0.243 0.544 0.544z"></path>
<path fill="#fff" style="fill: var(--color2, #fff)" d="M19.315 22.392c0.001 0.3-0.242 0.544-0.542 0.545s-0.544-0.242-0.545-0.542c-0.001-0.3 0.242-0.544 0.542-0.545s0.544 0.242 0.545 0.542z"></path>
<path fill="#fff" style="fill: var(--color2, #fff)" d="M33.020 24.108c0.092 0.286-0.066 0.592-0.351 0.684s-0.592-0.066-0.684-0.351c-0.092-0.286 0.066-0.592 0.351-0.684s0.592 0.066 0.684 0.351z"></path>
<path fill="#fff" style="fill: var(--color2, #fff)" d="M32.135 26.093c0.091 0.286-0.066 0.592-0.352 0.683s-0.592-0.067-0.683-0.352c-0.091-0.286 0.067-0.592 0.352-0.683s0.592 0.067 0.683 0.352z"></path>
<path fill="#fff" style="fill: var(--color2, #fff)" d="M31.259 28.069c0.092 0.286-0.065 0.592-0.351 0.684s-0.592-0.065-0.684-0.351c-0.092-0.286 0.065-0.592 0.351-0.684s0.592 0.065 0.684 0.351z"></path>
<path fill="#fff" style="fill: var(--color2, #fff)" d="M30.383 30.060c0.092 0.286-0.065 0.592-0.351 0.684s-0.592-0.065-0.684-0.351c-0.092-0.286 0.065-0.592 0.351-0.684s0.592 0.065 0.684 0.351z"></path>
<path fill="#fff" style="fill: var(--color2, #fff)" d="M29.48 32.045c0.092 0.286-0.066 0.592-0.352 0.684s-0.592-0.066-0.684-0.352c-0.092-0.286 0.066-0.592 0.352-0.684s0.592 0.066 0.684 0.352z"></path>
<path fill="#fff" style="fill: var(--color2, #fff)" d="M28.61 34.026c0.092 0.286-0.066 0.592-0.352 0.684s-0.592-0.066-0.684-0.352c-0.092-0.286 0.066-0.592 0.352-0.684s0.592 0.066 0.684 0.352z"></path>
<path fill="#fff" style="fill: var(--color2, #fff)" d="M27.719 36.001c0.092 0.286-0.065 0.592-0.351 0.684s-0.592-0.065-0.684-0.351c-0.092-0.286 0.065-0.592 0.351-0.684s0.592 0.065 0.684 0.351z"></path>
<path fill="#fff" style="fill: var(--color2, #fff)" d="M26.782 38.119c0.091 0.286-0.066 0.592-0.352 0.683s-0.592-0.066-0.683-0.352c-0.091-0.286 0.066-0.592 0.352-0.683s0.592 0.066 0.683 0.352z"></path>
<path fill="#fff" style="fill: var(--color2, #fff)" d="M25.843 40.232c0.092 0.286-0.066 0.592-0.352 0.684s-0.592-0.066-0.684-0.352c-0.092-0.286 0.066-0.592 0.352-0.684s0.592 0.066 0.684 0.352z"></path>
<path fill="#fff" style="fill: var(--color2, #fff)" d="M24.902 42.34c0.092 0.286-0.066 0.592-0.351 0.684s-0.592-0.066-0.684-0.351c-0.092-0.286 0.066-0.592 0.351-0.684s0.592 0.066 0.684 0.351z"></path>
<path fill="#fff" style="fill: var(--color2, #fff)" d="M23.911 44.562c0.092 0.286-0.065 0.592-0.351 0.684s-0.592-0.065-0.684-0.351c-0.092-0.286 0.065-0.592 0.351-0.684s0.592 0.065 0.684 0.351z"></path>
<path fill="#fff" style="fill: var(--color2, #fff)" d="M31.704 22.798c0.089 0.287-0.072 0.591-0.359 0.68s-0.591-0.072-0.68-0.359c-0.089-0.287 0.072-0.591 0.359-0.68s0.591 0.072 0.68 0.359z"></path>
<path fill="#fff" style="fill: var(--color2, #fff)" d="M30.443 24.655c0.088 0.287-0.073 0.591-0.359 0.68s-0.591-0.073-0.68-0.359c-0.088-0.287 0.073-0.591 0.359-0.68s0.591 0.073 0.68 0.359z"></path>
<path fill="#fff" style="fill: var(--color2, #fff)" d="M29.176 26.509c0.089 0.287-0.072 0.591-0.359 0.68s-0.591-0.072-0.68-0.359c-0.089-0.287 0.072-0.591 0.359-0.68s0.591 0.072 0.68 0.359z"></path>
<path fill="#fff" style="fill: var(--color2, #fff)" d="M27.917 28.374c0.089 0.287-0.072 0.591-0.359 0.68s-0.591-0.072-0.68-0.359c-0.089-0.287 0.072-0.591 0.359-0.68s0.591 0.072 0.68 0.359z"></path>
<path fill="#fff" style="fill: var(--color2, #fff)" d="M26.648 30.222c0.089 0.287-0.072 0.591-0.359 0.68s-0.591-0.072-0.68-0.359c-0.089-0.287 0.072-0.591 0.359-0.68s0.591 0.072 0.68 0.359z"></path>
<path fill="#fff" style="fill: var(--color2, #fff)" d="M25.397 32.078c0.089 0.287-0.072 0.591-0.359 0.68s-0.591-0.072-0.68-0.359c-0.089-0.287 0.072-0.591 0.359-0.68s0.591 0.072 0.68 0.359z"></path>
<path fill="#fff" style="fill: var(--color2, #fff)" d="M24.124 33.947c0.089 0.287-0.072 0.591-0.359 0.68s-0.591-0.072-0.68-0.359c-0.089-0.287 0.072-0.591 0.359-0.68s0.591 0.072 0.68 0.359z"></path>
<path fill="#fff" style="fill: var(--color2, #fff)" d="M22.868 35.802c0.089 0.287-0.072 0.591-0.359 0.68s-0.591-0.072-0.68-0.359c-0.089-0.287 0.072-0.591 0.359-0.68s0.591 0.072 0.68 0.359z"></path>
<path fill="#fff" style="fill: var(--color2, #fff)" d="M21.606 37.669c0.088 0.287-0.073 0.591-0.36 0.679s-0.591-0.073-0.679-0.36c-0.088-0.287 0.073-0.591 0.36-0.679s0.591 0.073 0.679 0.36z"></path>
<path fill="#fff" style="fill: var(--color2, #fff)" d="M20.338 39.523c0.088 0.287-0.073 0.591-0.36 0.679s-0.591-0.073-0.68-0.36c-0.088-0.287 0.073-0.591 0.36-0.679s0.591 0.073 0.68 0.36z"></path>
<path fill="#fff" style="fill: var(--color2, #fff)" d="M19.078 41.384c0.089 0.287-0.072 0.591-0.359 0.68s-0.591-0.072-0.68-0.359c-0.089-0.287 0.072-0.591 0.359-0.68s0.591 0.072 0.68 0.359z"></path>
<path fill="#fff" style="fill: var(--color2, #fff)" d="M30.285 21.349c0.089 0.287-0.072 0.591-0.359 0.68s-0.591-0.072-0.68-0.359c-0.089-0.287 0.072-0.591 0.359-0.68s0.591 0.072 0.68 0.359z"></path>
<path fill="#fff" style="fill: var(--color2, #fff)" d="M28.711 22.943c0.089 0.287-0.072 0.591-0.359 0.68s-0.591-0.072-0.68-0.359c-0.089-0.287 0.072-0.591 0.359-0.68s0.591 0.072 0.68 0.359z"></path>
<path fill="#fff" style="fill: var(--color2, #fff)" d="M27.147 24.552c0.089 0.287-0.072 0.591-0.359 0.68s-0.591-0.072-0.68-0.359c-0.089-0.287 0.072-0.591 0.359-0.68s0.591 0.072 0.68 0.359z"></path>
<path fill="#fff" style="fill: var(--color2, #fff)" d="M25.552 26.174c0.089 0.287-0.072 0.591-0.359 0.68s-0.591-0.072-0.68-0.359c-0.089-0.287 0.072-0.591 0.359-0.68s0.591 0.072 0.68 0.359z"></path>
<path fill="#fff" style="fill: var(--color2, #fff)" d="M24.047 27.743c0.088 0.287-0.073 0.591-0.36 0.68s-0.591-0.073-0.68-0.36c-0.088-0.287 0.073-0.591 0.36-0.68s0.591 0.073 0.68 0.36z"></path>
<path fill="#fff" style="fill: var(--color2, #fff)" d="M22.478 29.354c0.088 0.287-0.073 0.591-0.36 0.68s-0.591-0.073-0.68-0.36c-0.088-0.287 0.073-0.591 0.36-0.68s0.591 0.073 0.68 0.36z"></path>
<path fill="#fff" style="fill: var(--color2, #fff)" d="M20.881 30.982c0.089 0.287-0.071 0.591-0.358 0.68s-0.591-0.071-0.68-0.358c-0.089-0.287 0.071-0.591 0.358-0.68s0.591 0.071 0.68 0.358z"></path>
<path fill="#fff" style="fill: var(--color2, #fff)" d="M19.282 32.603c0.089 0.287-0.072 0.591-0.359 0.68s-0.591-0.072-0.68-0.359c-0.089-0.287 0.072-0.591 0.359-0.68s0.591 0.072 0.68 0.359z"></path>
<path fill="#fff" style="fill: var(--color2, #fff)" d="M17.721 34.234c0.088 0.287-0.073 0.591-0.36 0.68s-0.591-0.073-0.68-0.36c-0.088-0.287 0.073-0.591 0.36-0.68s0.591 0.073 0.68 0.36z"></path>
<path fill="#fff" style="fill: var(--color2, #fff)" d="M28.654 19.884c0.094 0.285-0.061 0.593-0.346 0.686s-0.593-0.061-0.686-0.346c-0.094-0.285 0.061-0.593 0.346-0.686s0.593 0.061 0.686 0.346z"></path>
<path fill="#fff" style="fill: var(--color2, #fff)" d="M26.866 21.176c0.093 0.285-0.062 0.592-0.348 0.686s-0.592-0.062-0.686-0.348c-0.093-0.285 0.062-0.592 0.348-0.686s0.592 0.062 0.686 0.348z"></path>
<path fill="#fff" style="fill: var(--color2, #fff)" d="M25.078 22.565c0.064 0.293-0.121 0.583-0.414 0.648s-0.583-0.121-0.648-0.414c-0.064-0.293 0.121-0.583 0.414-0.648s0.583 0.121 0.648 0.414z"></path>
<path fill="#fff" style="fill: var(--color2, #fff)" d="M23.271 23.869c0.064 0.293-0.122 0.583-0.416 0.647s-0.583-0.122-0.647-0.416c-0.064-0.293 0.122-0.583 0.416-0.647s0.583 0.122 0.647 0.416z"></path>
<path fill="#fff" style="fill: var(--color2, #fff)" d="M21.514 25.186c0.064 0.293-0.122 0.583-0.415 0.647s-0.583-0.122-0.647-0.415c-0.064-0.293 0.122-0.583 0.415-0.647s0.583 0.122 0.647 0.415z"></path>
<path fill="#fff" style="fill: var(--color2, #fff)" d="M19.696 26.487c0.064 0.293-0.122 0.583-0.415 0.647s-0.583-0.122-0.647-0.415c-0.064-0.293 0.122-0.583 0.415-0.647s0.583 0.122 0.647 0.415z"></path>
<path fill="#fff" style="fill: var(--color2, #fff)" d="M17.896 27.812c0.064 0.293-0.122 0.583-0.415 0.647s-0.583-0.122-0.647-0.415c-0.064-0.293 0.122-0.583 0.415-0.647s0.583 0.122 0.647 0.415z"></path>
</symbol>
<symbol id="icon-vectorSmoking" viewBox="0 0 64 64">
<title>vectorSmoking</title>
<path fill="#000" style="fill: var(--color1, #000)" d="M64 32c0 17.673-14.327 32-32 32s-32-14.327-32-32c0-17.673 14.327-32 32-32s32 14.327 32 32z"></path>
<path fill="#fff" style="fill: var(--color2, #fff)" d="M14.19 36.023h30.445v4.926h-29.575c-0.294 0-0.576 0-0.87 0z"></path>
<path fill="#fff" style="fill: var(--color2, #fff)" d="M47.19 35.175h-1.642c0-0.652 0-1.283 0-1.903 0-1.805-0.816-2.631-2.642-2.653-1.316 0-2.642-0.065-3.958 0-0.127 0.015-0.273 0.023-0.422 0.023-2.156 0-3.904-1.748-3.904-3.904 0-0.2 0.015-0.396 0.044-0.588-0.003-0.12-0.003-0.272-0.003-0.5-1.746-0.228-3.2-1.3-3.955-2.787-0.327-0.655-0.511-1.393-0.511-2.174 0-0.483 0.070-0.951 0.202-1.392 0.458-1.999 2.252-3.493 4.395-3.493 0.069 0 0.137 0.002 0.206 0.005l-0.010 1.587c-0.127 0.048-0.294 0.101-0.464 0.144-1.406 0.239-2.457 1.353-2.59 2.736-0.021 0.145-0.033 0.298-0.033 0.454 0 1.246 0.735 2.32 1.796 2.812 0.602 0.242 1.277 0.395 1.983 0.431 0.994 0.077 1.32 0.523 0.929 1.436-0.16 0.337-0.253 0.733-0.253 1.15 0 0.276 0.041 0.543 0.117 0.794 0.2 0.884 0.997 1.548 1.948 1.548 0.028 0 0.056-0.001 0.084-0.002 1.388 0 2.78 0 4.171 0 0.779 0.007 1.526 0.134 2.227 0.363 1.305 0.414 2.276 1.648 2.307 3.113 0.022 0.906-0.022 1.809-0.022 2.798z"></path>
<path fill="#fff" style="fill: var(--color2, #fff)" d="M41.819 25.009h0.794c0.096-0.005 0.208-0.008 0.321-0.008 3.665 0 6.654 2.891 6.811 6.517 0.109 1.167 0.001 2.352 0.001 3.581h-1.685c0-0.304 0-0.609 0-0.913 0.001-0.078 0.002-0.17 0.002-0.262 0-1.101-0.080-2.183-0.233-3.24-0.396-2.201-2.399-3.942-4.808-3.942-0.094 0-0.187 0.003-0.279 0.008-0.716-0.001-1.455-0.001-2.162-0.001-0.055 0.011-0.117 0.018-0.182 0.018-0.522 0-0.946-0.424-0.946-0.946 0-0.246 0.094-0.47 0.248-0.638 0.319-0.452 0.564-0.983 0.7-1.556 0.086-0.312 0.131-0.635 0.131-0.969 0-1.751-1.258-3.208-2.919-3.517l-0.979-0.188v-1.555c0.057-0.002 0.124-0.003 0.191-0.003 1.232 0 2.368 0.41 3.28 1.101 0.956 0.682 1.661 1.689 1.958 2.858 0.107 0.454 0.164 0.936 0.164 1.431 0 0.8-0.149 1.564-0.422 2.268z"></path>
<path fill="#fff" style="fill: var(--color2, #fff)" d="M45.602 35.947h1.587v4.936h-1.587z"></path>
<path fill="#fff" style="fill: var(--color2, #fff)" d="M48.092 40.883v-4.926h1.642v4.926z"></path>
</symbol>
<symbol id="icon-vectorstorage" viewBox="0 0 64 64">
<title>vectorstorage</title>
<path fill="#000" style="fill: var(--color1, #000)" d="M64 32c0 17.673-14.327 32-32 32s-32-14.327-32-32c0-17.673 14.327-32 32-32s32 14.327 32 32z"></path>
<path fill="#fff" style="fill: var(--color2, #fff)" d="M13.853 26.455v16.049c0 0 0 0 0 0 0 2.254 1.824 4.082 4.077 4.088h1.642v-24.226h-1.631c-2.258 0-4.088 1.83-4.088 4.088z"></path>
<path fill="#fff" style="fill: var(--color2, #fff)" d="M46.059 22.366h-1.859v24.215h1.859c2.258 0 4.088-1.83 4.088-4.088v-16.038c0-2.258-1.83-4.088-4.088-4.088z"></path>
<path fill="#fff" style="fill: var(--color2, #fff)" d="M36.969 18.278c0-0.601-0.487-1.087-1.087-1.087h-8.024c-0.601 0-1.087 0.487-1.087 1.087v4.088h-5.023v24.215h20.29v-24.215h-5.067zM28.151 18.593h7.405v3.784h-7.383z"></path>
</symbol>
<symbol id="icon-vectorWiFi" viewBox="0 0 64 64">
<title>vectorWiFi</title>
<path fill="#000" style="fill: var(--color1, #000)" d="M64 32c0 17.673-14.327 32-32 32s-32-14.327-32-32c0-17.673 14.327-32 32-32s32 14.327 32 32z"></path>
<path fill="#fff" style="fill: var(--color2, #fff)" d="M54.268 27.27c-1.468 1.435-2.947 2.871-4.415 4.349-0.402 0.391-0.761 0.826-1.196 1.294-4.304-4.191-10.191-6.776-16.681-6.776-6.446 0-12.297 2.55-16.599 6.696l-0.569-0.551-4.523-4.578c-0.169-0.149-0.353-0.292-0.546-0.423l-0.019-0.165c0.642-0.576 1.272-1.153 1.925-1.707 5.474-4.563 12.583-7.333 20.338-7.333 5.639 0 10.936 1.465 15.531 4.034 2.454 1.435 4.716 3.123 6.765 5.037z"></path>
<path fill="#fff" style="fill: var(--color2, #fff)" d="M45.853 35.338l-5.621 5.687c-2.171-2.010-5.087-3.242-8.291-3.242s-6.12 1.233-8.299 3.25l-5.657-5.542c6.633-7.068 19.768-8.188 27.868-0.152z"></path>
<path fill="#fff" style="fill: var(--color2, #fff)" d="M37.447 43.797l-5.437 5.556-5.524-5.437c2.512-2.784 7.938-3.066 10.96-0.12z"></path>
</symbol>
</defs>
</svg>
